<svg width="16" height="16" fill="#000" viewBox="0 0 16 16" xmlns="http://www.w3.org/2000/svg"
   ><path d="M1 2.5A1.5 1.5.0 0 1 2.5 1h3A1.5 1.5.0 0 1 7 2.5v3A1.5 1.5.0 0 1 5.5 7h-3A1.5 1.5.0 0 1 1 5.5v-3zm8 0A1.5 1.5.0 0 1 10.5 1h3A1.5 1.5.0 0 1 15 2.5v3A1.5 1.5.0 0 1 13.5 7h-3A1.5 1.5.0 0 1 9 5.5v-3zm-8 8A1.5 1.5.0 0 1 2.5 9h3A1.5 1.5.0 0 1 7 10.5v3A1.5 1.5.0 0 1 5.5 15h-3A1.5 1.5.0 0 1 1 13.5v-3zm8 0A1.5 1.5.0 0 1 10.5 9h3a1.5 1.5.0 0 1 1.5 1.5v3a1.5 1.5.0 0 1-1.5 1.5h-3A1.5 1.5.0 0 1 9 13.5v-3z"
     /><g transform="matrix(0.37499994,0,0,0.37499993,1.0000005,1.0000006)"><ellipse style="fill:#ff0;stroke:#ff0;stroke-width:1.79312" cx="8" cy="8" rx="7.1034412" ry="7.1034417" /><path d="M8 15A7 7 0 1 1 8 1 7 7 0 0 1 8 15zm0 1A8 8 0 1 0 8 0 8 8 0 0 0 8 16z"
       /><path d="M4.285 9.567A.5.5.0 0 1 4.968 9.75 3.498 3.498.0 0 0 8 11.5a3.498 3.498.0 0 0 3.032-1.75A.5.5.0 1 1 11.898 10.25 4.498 4.498.0 0 1 8 12.5 4.498 4.498.0 0 1 4.102 10.25.5.5.0 0 1 4.285 9.567zM7 6.5C7 7.328 6.552 8 6 8S5 7.328 5 6.5 5.448 5 6 5 7 5.672 7 6.5zm4 0C11 7.328 10.552 8 10 8S9 7.328 9 6.5 9.448 5 10 5s1 .672 1 1.5z"
       /></g><g transform="matrix(0.37499994,0,0,0.37499993,9.0000005,9.0000006)"><ellipse style="fill:#ff0;stroke:#ff0;stroke-width:1.79312" cx="8" cy="8" rx="7.1034412" ry="7.1034417" /><path d="M8 15A7 7 0 1 1 8 1 7 7 0 0 1 8 15zm0 1A8 8 0 1 0 8 0 8 8 0 0 0 8 16z"
       /><path d="M4.285 9.567A.5.5.0 0 1 4.968 9.75 3.498 3.498.0 0 0 8 11.5a3.498 3.498.0 0 0 3.032-1.75A.5.5.0 1 1 11.898 10.25 4.498 4.498.0 0 1 8 12.5 4.498 4.498.0 0 1 4.102 10.25.5.5.0 0 1 4.285 9.567zM7 6.5C7 7.328 6.552 8 6 8S5 7.328 5 6.5 5.448 5 6 5 7 5.672 7 6.5zm4 0C11 7.328 10.552 8 10 8S9 7.328 9 6.5 9.448 5 10 5s1 .672 1 1.5z"
       /></g></svg>