<svg width="16" height="16" fill="#000" viewBox="0 0 16 16" xmlns="http://www.w3.org/2000/svg"><path d="M1 2.5A1.5 1.5.0 012.5 1h3A1.5 1.5.0 017 2.5v3A1.5 1.5.0 015.5 7h-3A1.5 1.5.0 011 5.5v-3zm8 0A1.5 1.5.0 0110.5 1h3A1.5 1.5.0 0115 2.5v3A1.5 1.5.0 0113.5 7h-3A1.5 1.5.0 019 5.5v-3zm-8 8A1.5 1.5.0 012.5 9h3A1.5 1.5.0 017 10.5v3A1.5 1.5.0 015.5 15h-3A1.5 1.5.0 011 13.5v-3zm8 0A1.5 1.5.0 0110.5 9h3a1.5 1.5.0 011.5 1.5v3A1.5 1.5.0 0113.5 15h-3A1.5 1.5.0 019 13.5v-3z"/><g transform="matrix(0.37499994,0,0,0.37499993,1.0000005,1.0000006)"><ellipse style="fill:#ff0;stroke:#ff0;stroke-width:1.79312" cx="8" cy="8" rx="7.1034412" ry="7.1034417"/><path d="M8 15A7 7 0 118 1 7 7 0 018 15zm0 1A8 8 0 108 0 8 8 0 008 16z"/><path d="M4.285 9.567a.5.5.0 01.683.183A3.498 3.498.0 008 11.5a3.498 3.498.0 003.032-1.75.5.5.0 11.866.5A4.498 4.498.0 018 12.5 4.498 4.498.0 014.102 10.25a.5.5.0 01.183-.683zM7 6.5C7 7.328 6.552 8 6 8S5 7.328 5 6.5 5.448 5 6 5s1 .672 1 1.5zm4 0c0 .828-.448 1.5-1 1.5S9 7.328 9 6.5 9.448 5 10 5s1 .672 1 1.5z"/></g><g transform="matrix(0.37499994,0,0,0.37499993,9.0000005,9.0000006)"><ellipse style="fill:#ff0;stroke:#ff0;stroke-width:1.79312" cx="8" cy="8" rx="7.1034412" ry="7.1034417"/><path d="M8 15A7 7 0 118 1 7 7 0 018 15zm0 1A8 8 0 108 0 8 8 0 008 16z"/><path d="M4.285 9.567a.5.5.0 01.683.183A3.498 3.498.0 008 11.5a3.498 3.498.0 003.032-1.75.5.5.0 11.866.5A4.498 4.498.0 018 12.5 4.498 4.498.0 014.102 10.25a.5.5.0 01.183-.683zM7 6.5C7 7.328 6.552 8 6 8S5 7.328 5 6.5 5.448 5 6 5s1 .672 1 1.5zm4 0c0 .828-.448 1.5-1 1.5S9 7.328 9 6.5 9.448 5 10 5s1 .672 1 1.5z"/></g></svg>