<?xml version="1.0" standalone="no"?>
<!DOCTYPE svg PUBLIC "-//W3C//DTD SVG 20010904//EN"
 "http://www.w3.org/TR/2001/REC-SVG-20010904/DTD/svg10.dtd">
<svg version="1.0" xmlns="http://www.w3.org/2000/svg"
 width="700.000000pt" height="700.000000pt" viewBox="0 0 700.000000 700.000000"
 preserveAspectRatio="xMidYMid meet">
<metadata>
Created by potrace 1.14, written by Peter Selinger 2001-2017
</metadata>
<g transform="translate(0.000000,700.000000) scale(0.100000,-0.100000)"
fill="#000000" stroke="none">
<path d="M930 6541 c-185 -50 -343 -178 -424 -345 -67 -139 -66 -121 -66 -947
0 -691 1 -750 18 -815 25 -94 65 -174 121 -244 83 -103 168 -165 296 -214 l80
-31 790 0 790 0 80 28 c190 65 333 206 408 400 l32 82 0 795 0 795 -31 80
c-66 172 -183 301 -338 374 -131 62 -119 61 -942 60 -682 0 -755 -2 -814 -18z
m950 -152 c266 -33 497 -144 680 -329 418 -420 451 -1072 78 -1536 -190 -236
-463 -381 -783 -416 -352 -38 -734 114 -968 386 -379 441 -379 1071 0 1512
241 280 627 429 993 383z"/>
<path d="M1345 5708 c-54 -47 -78 -101 -83 -189 -5 -88 14 -161 55 -210 99
-117 229 -51 264 134 36 197 -118 370 -236 265z"/>
<path d="M2013 5721 c-99 -61 -129 -263 -57 -388 97 -168 285 -59 284 165 -2
177 -116 290 -227 223z"/>
<path d="M1121 4974 c-31 -39 -26 -73 20 -140 103 -148 240 -246 416 -296 109
-31 277 -31 386 0 176 50 313 148 416 296 46 67 51 101 20 140 -18 23 -28 27
-62 24 -38 -3 -45 -9 -101 -81 -126 -162 -274 -237 -466 -237 -192 0 -340 75
-466 237 -56 72 -63 78 -101 81 -34 3 -44 -1 -62 -24z"/>
<path d="M4430 6541 c-185 -50 -343 -178 -424 -345 -67 -139 -66 -121 -66
-947 0 -691 1 -750 18 -815 25 -94 65 -174 121 -244 83 -103 168 -165 296
-214 l80 -31 790 0 790 0 80 28 c190 65 333 206 408 400 l32 82 0 795 0 795
-31 80 c-66 172 -183 301 -338 374 -131 62 -119 61 -942 60 -682 0 -755 -2
-814 -18z"/>
<path d="M930 3041 c-185 -50 -343 -178 -424 -345 -67 -139 -66 -121 -66 -947
0 -691 1 -750 18 -815 25 -94 65 -174 121 -244 83 -103 168 -165 296 -214 l80
-31 790 0 790 0 80 28 c190 65 333 206 408 400 l32 82 0 795 0 795 -31 80
c-66 172 -183 301 -338 374 -131 62 -119 61 -942 60 -682 0 -755 -2 -814 -18z"/>
<path d="M4430 3041 c-185 -50 -343 -178 -424 -345 -67 -139 -66 -121 -66
-947 0 -691 1 -750 18 -815 25 -94 65 -174 121 -244 83 -103 168 -165 296
-214 l80 -31 790 0 790 0 80 28 c190 65 333 206 408 400 l32 82 0 795 0 795
-31 80 c-66 172 -183 301 -338 374 -131 62 -119 61 -942 60 -682 0 -755 -2
-814 -18z m950 -152 c266 -33 497 -144 680 -329 418 -420 451 -1072 78 -1536
-190 -236 -463 -381 -783 -416 -352 -38 -734 114 -968 386 -379 441 -379 1071
0 1512 241 280 627 429 993 383z"/>
<path d="M4845 2208 c-54 -47 -78 -101 -83 -189 -5 -88 14 -161 55 -210 99
-117 229 -51 264 134 36 197 -118 370 -236 265z"/>
<path d="M5513 2221 c-99 -61 -129 -263 -57 -388 97 -168 285 -59 284 165 -2
177 -116 290 -227 223z"/>
<path d="M4621 1474 c-31 -39 -26 -73 20 -140 103 -148 240 -246 416 -296 109
-31 277 -31 386 0 176 50 313 148 416 296 46 67 51 101 20 140 -18 23 -28 27
-62 24 -38 -3 -45 -9 -101 -81 -126 -162 -274 -237 -466 -237 -192 0 -340 75
-466 237 -56 72 -63 78 -101 81 -34 3 -44 -1 -62 -24z"/>
</g>
</svg>
